<svg class="icon" style="width: 1em;height: 1em;vertical-align: middle;fill: currentColor;overflow: hidden;" viewBox="0 0 1024 1024" version="1.1" xmlns="http://www.w3.org/2000/svg" p-id="3445" data-spm-anchor-id="a313x.search_index.i1.i0.26233a81BulRCF"><path d="M466.944 334.6432l-62.941867 49.288533A364.544 364.544 0 0 0 66.218667 456.977067a38.638933 38.638933 0 0 0-6.3488 51.882666l4.164266 4.9152 201.659734 201.591467-220.16 220.16a38.775467 38.775467 0 0 0 49.9712 58.914133l4.778666-4.096 220.228267-220.16 201.5232 201.591467a38.775467 38.775467 0 0 0 56.866133-2.184533 362.222933 362.222933 0 0 0 75.776-146.090667L466.944 334.6432zM468.036267 21.9136l-63.761067 24.439467 355.464533 925.969066 63.6928-24.439466-144.725333-377.309867 126.225067-161.450667a212.104533 212.104533 0 0 0 163.566933-51.8144l10.0352-9.4208a38.775467 38.775467 0 0 0 3.959467-50.176l-3.959467-4.642133L730.9312 45.4656a38.775467 38.775467 0 0 0-54.749867 0 212.309333 212.309333 0 0 0-62.395733 159.880533l1.092267 13.7216-54.749867 42.8032L467.968 21.845333z" p-id="3446"></path></svg>